<svg width="260" height="260" viewBox="0 0 260 260" fill="none" xmlns="http://www.w3.org/2000/svg">
<rect width="260" height="260" rx="80" fill="#D1A954"/>
<path d="M92.022 122.533H131.964V189.549C120.646 194.375 108.612 196.787 95.8643 196.787C80.6738 196.787 68.9683 191.009 60.7476 179.452C52.5864 167.896 48.5059 151.246 48.5059 129.502C48.5059 108.534 53.1821 92.1221 62.5347 80.2676C71.9468 68.4131 85.082 62.4858 101.94 62.4858C112.365 62.4858 122.313 65.1665 131.785 70.5278L124.101 90.3647C116.714 86.0757 109.804 83.9312 103.37 83.9312C94.1367 83.9312 86.8096 88.0713 81.3887 96.3516C76.0273 104.572 73.3467 115.801 73.3467 130.039C73.3467 144.693 75.2827 155.922 79.1548 163.726C83.0864 171.529 88.7754 175.431 96.2217 175.431C100.153 175.431 104.145 174.925 108.195 173.912V143.978H92.022V122.533Z" fill="white"/>
<path d="M192.011 195H167.795V85.7183H142.776V64.3623H217.03V85.7183H192.011V195Z" fill="white"/>
</svg>
